<svg xmlns="http://www.w3.org/2000/svg" width="960" height="640" viewBox="0 0 960 640" role="img" aria-label="Describe Picture 4" data-scene-key="factory-quality-304">
  <rect width="960" height="640" fill="#f4f2f8"/>
  <rect x="80" y="82" width="800" height="472" rx="18" fill="#ffffff" stroke="#ded9ec" stroke-width="6"/>
  <rect x="122" y="130" width="306" height="242" rx="12" fill="#ded9ec"/>
  <rect x="154" y="166" width="82" height="152" rx="8" fill="#59669a" opacity="0.48"/>
  <rect x="260" y="206" width="82" height="112" rx="8" fill="#d18a43" opacity="0.82"/>
  <rect x="502" y="132" width="252" height="84" rx="14" fill="#f8fbfd" stroke="#59669a" stroke-width="5"/>
  <rect x="530" y="166" width="176" height="14" rx="7" fill="#59669a" opacity="0.32"/>
  <rect x="150" y="404" width="664" height="50" rx="14" fill="#59669a" opacity="0.78"/>
  <rect x="532" y="292" width="116" height="82" rx="10" fill="#d18a43" opacity="0.82"/>
  <circle cx="406" cy="300" r="23" fill="#8f6348"/>
  <rect x="380" y="334" width="52" height="78" rx="17" fill="#59669a"/>
  <path d="M380 352 C406 380, 406 380, 432 352" fill="none" stroke="#30354e" stroke-width="5" opacity="0.24"/>
  <circle cx="692" cy="300" r="23" fill="#6e4d39"/>
  <rect x="666" y="334" width="52" height="78" rx="17" fill="#d18a43"/>
  <path d="M666 352 C692 380, 692 380, 718 352" fill="none" stroke="#30354e" stroke-width="5" opacity="0.24"/>
</svg>