<svg xmlns="http://www.w3.org/2000/svg" width="960" height="640" viewBox="0 0 960 640" role="img" aria-label="Picture Sentence 5" data-scene-key="library-workshop-305">
  <rect width="960" height="640" fill="#f2f7f5"/>
  <rect x="92" y="88" width="776" height="448" rx="18" fill="#ffffff" stroke="#d2e3da" stroke-width="6"/>
  <rect x="132" y="126" width="160" height="300" rx="12" fill="#d2e3da"/>
  <rect x="168" y="158" width="86" height="26" rx="8" fill="#3e7057" opacity="0.36"/>
  <rect x="168" y="220" width="86" height="26" rx="8" fill="#d7a23f" opacity="0.70"/>
  <rect x="360" y="136" width="360" height="126" rx="14" fill="#f8fbfd" stroke="#3e7057" stroke-width="5"/>
  <rect x="400" y="174" width="260" height="16" rx="8" fill="#3e7057" opacity="0.30"/>
  <rect x="400" y="214" width="176" height="16" rx="8" fill="#d7a23f" opacity="0.76"/>
  <rect x="338" y="382" width="426" height="56" rx="14" fill="#3e7057" opacity="0.76"/>
  <circle cx="481" cy="304" r="23" fill="#8f6348"/>
  <rect x="455" y="338" width="52" height="78" rx="17" fill="#d7a23f"/>
  <path d="M455 356 C481 384, 481 384, 507 356" fill="none" stroke="#25382d" stroke-width="5" opacity="0.24"/>
  <circle cx="663" cy="304" r="23" fill="#6e4d39"/>
  <rect x="637" y="338" width="52" height="78" rx="17" fill="#3e7057"/>
  <path d="M637 356 C663 384, 663 384, 689 356" fill="none" stroke="#25382d" stroke-width="5" opacity="0.24"/>
</svg>