<svg xmlns="http://www.w3.org/2000/svg" width="960" height="640" viewBox="0 0 960 640" role="img" aria-label="Picture Sentence 3" data-scene-key="boardroom-review-303">
  <rect width="960" height="640" fill="#f2f7f4"/>
  <rect x="90" y="84" width="780" height="456" rx="18" fill="#ffffff" stroke="#cee0d6" stroke-width="6"/>
  <rect x="130" y="136" width="704" height="70" rx="14" fill="#315d66" opacity="0.18"/>
  <rect x="174" y="246" width="206" height="144" rx="12" fill="#f8fbfd" stroke="#315d66" stroke-width="5"/>
  <rect x="206" y="282" width="140" height="14" rx="7" fill="#315d66" opacity="0.32"/>
  <rect x="206" y="322" width="94" height="14" rx="7" fill="#e1a03f" opacity="0.74"/>
  <rect x="492" y="246" width="206" height="144" rx="12" fill="#cee0d6"/>
  <rect x="522" y="282" width="144" height="14" rx="7" fill="#315d66" opacity="0.32"/>
  <rect x="158" y="424" width="648" height="24" rx="12" fill="#315d66" opacity="0.70"/>
  <circle cx="431" cy="278" r="23" fill="#8f6348"/>
  <rect x="405" y="312" width="52" height="78" rx="17" fill="#e1a03f"/>
  <path d="M405 330 C431 358, 431 358, 457 330" fill="none" stroke="#26363a" stroke-width="5" opacity="0.24"/>
  <circle cx="743" cy="280" r="23" fill="#6e4d39"/>
  <rect x="717" y="314" width="52" height="78" rx="17" fill="#315d66"/>
  <path d="M717 332 C743 360, 743 360, 769 332" fill="none" stroke="#26363a" stroke-width="5" opacity="0.24"/>
</svg>