<svg xmlns="http://www.w3.org/2000/svg" width="960" height="640" viewBox="0 0 960 640" role="img" aria-label="Describe Picture 3">
  <rect width="960" height="640" fill="#f5f5f2"/>
  <rect x="100" y="88" width="760" height="446" rx="18" fill="#ffffff" stroke="#d9d3c7" stroke-width="6"/>
  <rect x="138" y="130" width="660" height="76" rx="14" fill="#4d6073" opacity="0.18"/>
  <rect x="162" y="238" width="610" height="64" rx="18" fill="#c74f4f" opacity="0.84"/>
  <rect x="192" y="192" width="150" height="88" rx="10" fill="#eef3f7" stroke="#4d6073" stroke-width="5"/>
  <rect x="214" y="218" width="92" height="12" rx="6" fill="#4d6073" opacity="0.35"/>
  <rect x="214" y="242" width="64" height="12" rx="6" fill="#c74f4f"/>
  <rect x="570" y="174" width="172" height="106" rx="12" fill="#d9d3c7"/>
  <circle cx="613" cy="224" r="18" fill="#4d6073" opacity="0.45"/>
  <rect x="642" y="210" width="64" height="12" rx="6" fill="#4d6073" opacity="0.35"/>
  <circle cx="439" cy="184" r="24" fill="#8a6044"/>
  <rect x="412" y="218" width="54" height="76" rx="18" fill="#4d6073"/>
  <path d="M417 218 C434 236, 444 236, 461 218" fill="none" stroke="#353b44" stroke-width="5" opacity="0.25"/>
  <circle cx="654" cy="332" r="24" fill="#6f4e37"/>
  <rect x="627" y="366" width="54" height="76" rx="18" fill="#c74f4f"/>
  <path d="M632 366 C649 384, 659 384, 676 366" fill="none" stroke="#353b44" stroke-width="5" opacity="0.25"/>
  <rect x="154" y="444" width="650" height="14" rx="7" fill="#4d6073" opacity="0.16"/>
</svg>