<svg xmlns="http://www.w3.org/2000/svg" width="960" height="640" viewBox="0 0 960 640" role="img" aria-label="Picture Sentence 5" data-scene-key="market-stand-405">
  <rect width="960" height="640" fill="#f2f7f5"/>
  <rect x="84" y="86" width="792" height="452" rx="18" fill="#ffffff" stroke="#d2e3da" stroke-width="6"/>
  <rect x="126" y="132" width="238" height="160" rx="13" fill="#d2e3da"/>
  <rect x="154" y="166" width="72" height="70" rx="9" fill="#d7a23f" opacity="0.84"/>
  <rect x="246" y="166" width="72" height="70" rx="9" fill="#3e7057" opacity="0.62"/>
  <rect x="446" y="132" width="270" height="88" rx="14" fill="#3e7057" opacity="0.18"/>
  <rect x="484" y="164" width="194" height="16" rx="8" fill="#3e7057" opacity="0.34"/>
  <rect x="138" y="368" width="678" height="58" rx="18" fill="#3e7057" opacity="0.78"/>
  <path d="M546 292 C570 252, 644 252, 668 292" fill="none" stroke="#d7a23f" stroke-width="14" stroke-linecap="round"/>
  <rect x="570" y="304" width="72" height="70" rx="14" fill="#3e7057"/>
  <circle cx="319" cy="292" r="23" fill="#8f6348"/>
  <rect x="293" y="326" width="52" height="78" rx="17" fill="#d7a23f"/>
  <path d="M293 344 C319 372, 319 372, 345 344" fill="none" stroke="#25382d" stroke-width="5" opacity="0.24"/>
</svg>