<svg xmlns="http://www.w3.org/2000/svg" width="960" height="640" viewBox="0 0 960 640" role="img" aria-label="Picture Sentence 4">
  <rect width="960" height="640" fill="#f1f6f2"/>
  <rect x="96" y="90" width="768" height="444" rx="18" fill="#ffffff" stroke="#cfe0d3" stroke-width="6"/>
  <rect x="128" y="144" width="520" height="82" rx="14" fill="#3f6b4f" opacity="0.2"/>
  <rect x="150" y="272" width="664" height="62" rx="18" fill="#3f6b4f" opacity="0.8"/>
  <rect x="168" y="220" width="118" height="74" rx="10" fill="#eef3f7" stroke="#d6a13d" stroke-width="5"/>
  <circle cx="690" cy="226" r="34" fill="#d6a13d" opacity="0.78"/>
  <rect x="660" y="264" width="64" height="94" rx="18" fill="#3f6b4f"/>
  <rect x="580" y="382" width="84" height="94" rx="12" fill="#cfe0d3" stroke="#3f6b4f" stroke-width="5"/>
  <circle cx="602" cy="486" r="10" fill="#24362a"/>
  <circle cx="642" cy="486" r="10" fill="#24362a"/>
  <circle cx="383" cy="224" r="24" fill="#8a6044"/>
  <rect x="356" y="258" width="54" height="76" rx="18" fill="#d6a13d"/>
  <path d="M361 258 C378 276, 388 276, 405 258" fill="none" stroke="#24362a" stroke-width="5" opacity="0.25"/>
  <rect x="188" y="420" width="280" height="14" rx="7" fill="#d6a13d"/>
</svg>