<svg xmlns="http://www.w3.org/2000/svg" width="960" height="640" viewBox="0 0 960 640" role="img" aria-label="Picture Sentence 4" data-scene-key="tech-support-desk-404">
  <rect width="960" height="640" fill="#f4f2f8"/>
  <rect x="88" y="84" width="784" height="456" rx="18" fill="#ffffff" stroke="#ded9ec" stroke-width="6"/>
  <rect x="132" y="134" width="342" height="174" rx="14" fill="#f8fbfd" stroke="#59669a" stroke-width="5"/>
  <rect x="168" y="174" width="236" height="16" rx="8" fill="#59669a" opacity="0.30"/>
  <rect x="168" y="216" width="170" height="16" rx="8" fill="#d18a43" opacity="0.76"/>
  <rect x="550" y="136" width="170" height="218" rx="13" fill="#ded9ec"/>
  <circle cx="636" cy="214" r="36" fill="#d18a43" opacity="0.78"/>
  <rect x="126" y="388" width="704" height="54" rx="14" fill="#59669a" opacity="0.80"/>
  <rect x="214" y="332" width="118" height="60" rx="10" fill="#d18a43" opacity="0.84"/>
  <circle cx="418" cy="308" r="23" fill="#8f6348"/>
  <rect x="392" y="342" width="52" height="78" rx="17" fill="#59669a"/>
  <path d="M392 360 C418 388, 418 388, 444 360" fill="none" stroke="#30354e" stroke-width="5" opacity="0.24"/>
  <circle cx="696" cy="308" r="23" fill="#6e4d39"/>
  <rect x="670" y="342" width="52" height="78" rx="17" fill="#d18a43"/>
  <path d="M670 360 C696 388, 696 388, 722 360" fill="none" stroke="#30354e" stroke-width="5" opacity="0.24"/>
</svg>