<svg xmlns="http://www.w3.org/2000/svg" width="960" height="640" viewBox="0 0 960 640" role="img" aria-label="Describe Picture 3" data-scene-key="library-workshop-403">
  <rect width="960" height="640" fill="#f2f7f4"/>
  <rect x="92" y="88" width="776" height="448" rx="18" fill="#ffffff" stroke="#cee0d6" stroke-width="6"/>
  <rect x="132" y="126" width="160" height="300" rx="12" fill="#cee0d6"/>
  <rect x="168" y="158" width="86" height="26" rx="8" fill="#315d66" opacity="0.36"/>
  <rect x="168" y="220" width="86" height="26" rx="8" fill="#e1a03f" opacity="0.70"/>
  <rect x="360" y="136" width="360" height="126" rx="14" fill="#f8fbfd" stroke="#315d66" stroke-width="5"/>
  <rect x="400" y="174" width="260" height="16" rx="8" fill="#315d66" opacity="0.30"/>
  <rect x="400" y="214" width="176" height="16" rx="8" fill="#e1a03f" opacity="0.76"/>
  <rect x="338" y="382" width="426" height="56" rx="14" fill="#315d66" opacity="0.76"/>
  <circle cx="491" cy="304" r="23" fill="#8f6348"/>
  <rect x="465" y="338" width="52" height="78" rx="17" fill="#e1a03f"/>
  <path d="M465 356 C491 384, 491 384, 517 356" fill="none" stroke="#26363a" stroke-width="5" opacity="0.24"/>
  <circle cx="653" cy="304" r="23" fill="#6e4d39"/>
  <rect x="627" y="338" width="52" height="78" rx="17" fill="#315d66"/>
  <path d="M627 356 C653 384, 653 384, 679 356" fill="none" stroke="#26363a" stroke-width="5" opacity="0.24"/>
</svg>