<svg xmlns="http://www.w3.org/2000/svg" width="960" height="640" viewBox="0 0 960 640" role="img" aria-label="Picture Sentence 1" data-scene-key="boardroom-review-401">
  <rect width="960" height="640" fill="#f7f2e9"/>
  <rect x="90" y="84" width="780" height="456" rx="18" fill="#ffffff" stroke="#e4dccf" stroke-width="6"/>
  <rect x="130" y="136" width="704" height="70" rx="14" fill="#2c6b5c" opacity="0.18"/>
  <rect x="174" y="246" width="206" height="144" rx="12" fill="#f8fbfd" stroke="#2c6b5c" stroke-width="5"/>
  <rect x="206" y="282" width="140" height="14" rx="7" fill="#2c6b5c" opacity="0.32"/>
  <rect x="206" y="322" width="94" height="14" rx="7" fill="#d77a45" opacity="0.74"/>
  <rect x="492" y="246" width="206" height="144" rx="12" fill="#e4dccf"/>
  <rect x="522" y="282" width="144" height="14" rx="7" fill="#2c6b5c" opacity="0.32"/>
  <rect x="158" y="424" width="648" height="24" rx="12" fill="#2c6b5c" opacity="0.70"/>
  <circle cx="441" cy="278" r="23" fill="#8f6348"/>
  <rect x="415" y="312" width="52" height="78" rx="17" fill="#d77a45"/>
  <path d="M415 330 C441 358, 441 358, 467 330" fill="none" stroke="#2f3b36" stroke-width="5" opacity="0.24"/>
  <circle cx="733" cy="280" r="23" fill="#6e4d39"/>
  <rect x="707" y="314" width="52" height="78" rx="17" fill="#2c6b5c"/>
  <path d="M707 332 C733 360, 733 360, 759 332" fill="none" stroke="#2f3b36" stroke-width="5" opacity="0.24"/>
</svg>