<svg xmlns="http://www.w3.org/2000/svg" width="960" height="640" viewBox="0 0 960 640" role="img" aria-label="Picture Sentence 2" data-scene-key="hotel-reception-702">
  <rect width="960" height="640" fill="#f5f4f1"/>
  <rect x="84" y="90" width="792" height="448" rx="18" fill="#ffffff" stroke="#ddd5ca" stroke-width="6"/>
  <rect x="132" y="150" width="246" height="164" rx="13" fill="#4c6178" opacity="0.18"/>
  <rect x="422" y="132" width="300" height="92" rx="14" fill="#ddd5ca"/>
  <rect x="452" y="164" width="240" height="18" rx="9" fill="#4c6178" opacity="0.28"/>
  <rect x="130" y="376" width="696" height="46" rx="12" fill="#4c6178" opacity="0.80"/>
  <rect x="188" y="326" width="96" height="58" rx="10" fill="#bd4b4b" opacity="0.86"/>
  <rect x="548" y="278" width="132" height="92" rx="12" fill="#f7fbfc" stroke="#4c6178" stroke-width="5"/>
  <circle cx="704" cy="308" r="28" fill="#bd4b4b" opacity="0.74"/>
  <circle cx="256" cy="282" r="23" fill="#8f6348"/>
  <rect x="230" y="316" width="52" height="78" rx="17" fill="#bd4b4b"/>
  <path d="M230 334 C256 362, 256 362, 282 334" fill="none" stroke="#343b46" stroke-width="5" opacity="0.24"/>
  <circle cx="619" cy="276" r="23" fill="#6e4d39"/>
  <rect x="593" y="310" width="52" height="78" rx="17" fill="#4c6178"/>
  <path d="M593 328 C619 356, 619 356, 645 328" fill="none" stroke="#343b46" stroke-width="5" opacity="0.24"/>
</svg>