<svg xmlns="http://www.w3.org/2000/svg" width="960" height="640" viewBox="0 0 960 640" role="img" aria-label="Describe Picture 4" data-scene-key="airport-counter-704">
  <rect width="960" height="640" fill="#f4f2f8"/>
  <rect x="92" y="86" width="780" height="452" rx="18" fill="#ffffff" stroke="#ded9ec" stroke-width="6"/>
  <rect x="138" y="132" width="652" height="74" rx="14" fill="#59669a" opacity="0.18"/>
  <rect x="170" y="238" width="600" height="66" rx="18" fill="#d18a43" opacity="0.84"/>
  <rect x="198" y="190" width="152" height="90" rx="10" fill="#f8fbfd" stroke="#59669a" stroke-width="5"/>
  <rect x="220" y="216" width="96" height="12" rx="6" fill="#59669a" opacity="0.35"/>
  <rect x="584" y="174" width="164" height="106" rx="12" fill="#ded9ec"/>
  <circle cx="626" cy="224" r="18" fill="#59669a" opacity="0.46"/>
  <circle cx="442" cy="186" r="23" fill="#8f6348"/>
  <rect x="416" y="220" width="52" height="78" rx="17" fill="#59669a"/>
  <path d="M416 238 C442 266, 442 266, 468 238" fill="none" stroke="#30354e" stroke-width="5" opacity="0.24"/>
  <circle cx="666" cy="334" r="23" fill="#6e4d39"/>
  <rect x="640" y="368" width="52" height="78" rx="17" fill="#d18a43"/>
  <path d="M640 386 C666 414, 666 414, 692 386" fill="none" stroke="#30354e" stroke-width="5" opacity="0.24"/>
  <path d="M150 456 H810" stroke="#59669a" stroke-width="14" stroke-linecap="round" opacity="0.16"/>
</svg>