<svg xmlns="http://www.w3.org/2000/svg" width="960" height="640" viewBox="0 0 960 640" role="img" aria-label="Picture Sentence 4">
  <rect width="960" height="640" fill="#f5f2f8"/>
  <rect x="108" y="84" width="744" height="456" rx="18" fill="#ffffff" stroke="#ddd8eb" stroke-width="6"/>
  <rect x="150" y="130" width="148" height="260" rx="12" fill="#ddd8eb"/>
  <rect x="178" y="164" width="92" height="18" rx="9" fill="#5b5f8f" opacity="0.36"/>
  <rect x="178" y="211" width="92" height="18" rx="9" fill="#d48f45" opacity="0.66"/>
  <rect x="178" y="258" width="92" height="18" rx="9" fill="#5b5f8f" opacity="0.26"/>
  <rect x="372" y="142" width="282" height="174" rx="12" fill="#eef3f7" stroke="#5b5f8f" stroke-width="5"/>
  <rect x="405" y="176" width="198" height="16" rx="8" fill="#5b5f8f" opacity="0.28"/>
  <rect x="405" y="212" width="150" height="16" rx="8" fill="#d48f45" opacity="0.74"/>
  <rect x="338" y="394" width="410" height="46" rx="12" fill="#d48f45" opacity="0.84"/>
  <rect x="438" y="342" width="128" height="62" rx="10" fill="#ffffff" stroke="#ddd8eb" stroke-width="5"/>
  <circle cx="654" cy="298" r="24" fill="#8a6044"/>
  <rect x="627" y="332" width="54" height="76" rx="18" fill="#5b5f8f"/>
  <path d="M632 332 C649 350, 659 350, 676 332" fill="none" stroke="#30334d" stroke-width="5" opacity="0.25"/>
</svg>