<svg xmlns="http://www.w3.org/2000/svg" width="960" height="640" viewBox="0 0 960 640" role="img" aria-label="Picture Sentence 4">
  <rect width="960" height="640" fill="#f4f7fb"/>
  <rect x="70" y="70" width="820" height="480" rx="18" fill="#ffffff" stroke="#d7e4ee" stroke-width="6"/>
  <rect x="115" y="115" width="245" height="140" rx="10" fill="#d7e4ee"/>
  <rect x="405" y="115" width="205" height="32" rx="6" fill="#426b8f" opacity="0.22"/>
  <rect x="405" y="168" width="330" height="24" rx="6" fill="#426b8f" opacity="0.16"/>
  <rect x="405" y="210" width="250" height="24" rx="6" fill="#426b8f" opacity="0.12"/>
  <rect x="152" y="259" width="560" height="42" rx="8" fill="#426b8f" opacity="0.78"/>
  <rect x="152" y="259" width="560" height="18" rx="8" fill="#f3b23c" opacity="0.8"/>
  <circle cx="260" cy="300" r="34" fill="#5a4635"/>
  <rect x="223" y="335" width="78" height="112" rx="22" fill="#426b8f"/>
  <circle cx="380" cy="310" r="30" fill="#6f4e37"/>
  <rect x="348" y="340" width="72" height="105" rx="22" fill="#f3b23c"/>
  <rect x="510" y="300" width="120" height="80" rx="8" fill="#eef3f7" stroke="#426b8f" stroke-width="4"/>
  <rect x="535" y="323" width="70" height="10" rx="5" fill="#426b8f" opacity="0.3"/>
  <rect x="535" y="347" width="50" height="10" rx="5" fill="#f3b23c" opacity="0.75"/>
  <rect x="526" y="410" width="52" height="68" rx="12" fill="#d7e4ee"/>
  <path d="M526 414 C430 370, 470 350, 490 395" fill="none" stroke="#426b8f" stroke-width="13" stroke-linecap="round"/>
  <path d="M526 415 C540 360, 580 370, 560 410" fill="none" stroke="#f3b23c" stroke-width="13" stroke-linecap="round"/>
  <rect x="125" y="495" width="710" height="12" rx="6" fill="#426b8f" opacity="0.16"/>
</svg>