<svg xmlns="http://www.w3.org/2000/svg" width="960" height="640" viewBox="0 0 960 640" role="img" aria-label="Picture Sentence 3" data-scene-key="boardroom-review-1003">
  <rect width="960" height="640" fill="#f2f7f4"/>
  <rect x="90" y="84" width="780" height="456" rx="18" fill="#ffffff" stroke="#cee0d6" stroke-width="6"/>
  <rect x="130" y="136" width="704" height="70" rx="14" fill="#315d66" opacity="0.18"/>
  <rect x="174" y="246" width="206" height="144" rx="12" fill="#f8fbfd" stroke="#315d66" stroke-width="5"/>
  <rect x="206" y="282" width="140" height="14" rx="7" fill="#315d66" opacity="0.32"/>
  <rect x="206" y="322" width="94" height="14" rx="7" fill="#e1a03f" opacity="0.74"/>
  <rect x="492" y="246" width="206" height="144" rx="12" fill="#cee0d6"/>
  <rect x="522" y="282" width="144" height="14" rx="7" fill="#315d66" opacity="0.32"/>
  <rect x="158" y="424" width="648" height="24" rx="12" fill="#315d66" opacity="0.70"/>
  <circle cx="475" cy="278" r="23" fill="#8f6348"/>
  <rect x="449" y="312" width="52" height="78" rx="17" fill="#e1a03f"/>
  <path d="M449 330 C475 358, 475 358, 501 330" fill="none" stroke="#26363a" stroke-width="5" opacity="0.24"/>
  <circle cx="699" cy="280" r="23" fill="#6e4d39"/>
  <rect x="673" y="314" width="52" height="78" rx="17" fill="#315d66"/>
  <path d="M673 332 C699 360, 699 360, 725 332" fill="none" stroke="#26363a" stroke-width="5" opacity="0.24"/>
</svg>