<svg xmlns="http://www.w3.org/2000/svg" width="960" height="640" viewBox="0 0 960 640" role="img" aria-label="Picture Sentence 4">
  <rect width="960" height="640" fill="#f3f7f4"/>
  <rect x="90" y="86" width="780" height="452" rx="18" fill="#ffffff" stroke="#c9d9d2" stroke-width="6"/>
  <rect x="132" y="138" width="220" height="132" rx="12" fill="#c9d9d2"/>
  <rect x="395" y="132" width="116" height="178" rx="10" fill="#eef3f7" stroke="#335c67" stroke-width="5"/>
  <circle cx="453" cy="198" r="35" fill="#e09f3e" opacity="0.7"/>
  <rect x="570" y="130" width="210" height="70" rx="12" fill="#335c67" opacity="0.2"/>
  <rect x="586" y="220" width="170" height="24" rx="8" fill="#335c67" opacity="0.32"/>
  <rect x="138" y="360" width="666" height="52" rx="12" fill="#335c67" opacity="0.76"/>
  <rect x="190" y="322" width="80" height="48" rx="8" fill="#e09f3e" opacity="0.8"/>
  <rect x="310" y="316" width="70" height="54" rx="8" fill="#c9d9d2"/>
  <path d="M640 318 C655 280, 710 282, 718 324" fill="none" stroke="#e09f3e" stroke-width="12" stroke-linecap="round"/>
  <circle cx="256" cy="278" r="24" fill="#8a6044"/>
  <rect x="229" y="312" width="54" height="76" rx="18" fill="#e09f3e"/>
  <path d="M234 312 C251 330, 261 330, 278 312" fill="none" stroke="#263238" stroke-width="5" opacity="0.25"/>
  <circle cx="689" cy="276" r="24" fill="#6f4e37"/>
  <rect x="662" y="310" width="54" height="76" rx="18" fill="#335c67"/>
  <path d="M667 310 C684 328, 694 328, 711 310" fill="none" stroke="#263238" stroke-width="5" opacity="0.25"/>
</svg>