<svg xmlns="http://www.w3.org/2000/svg" width="960" height="640" viewBox="0 0 960 640" role="img" aria-label="Picture Sentence 1" data-scene-key="delivery-dock-1001">
  <rect width="960" height="640" fill="#f7f2e9"/>
  <rect x="78" y="82" width="804" height="474" rx="18" fill="#ffffff" stroke="#e4dccf" stroke-width="6"/>
  <rect x="122" y="130" width="274" height="256" rx="14" fill="#e4dccf"/>
  <rect x="152" y="162" width="88" height="72" rx="9" fill="#d77a45" opacity="0.86"/>
  <rect x="260" y="162" width="88" height="72" rx="9" fill="#2c6b5c" opacity="0.64"/>
  <rect x="152" y="260" width="196" height="34" rx="9" fill="#2c6b5c" opacity="0.25"/>
  <path d="M492 386 h254 v48 h-254 z" fill="#2c6b5c" opacity="0.82"/>
  <circle cx="536" cy="450" r="22" fill="#2f3b36"/>
  <circle cx="704" cy="450" r="22" fill="#2f3b36"/>
  <rect x="598" y="186" width="130" height="118" rx="12" fill="#f8fbfd" stroke="#2c6b5c" stroke-width="5"/>
  <circle cx="531" cy="282" r="23" fill="#8f6348"/>
  <rect x="505" y="316" width="52" height="78" rx="17" fill="#2c6b5c"/>
  <path d="M505 334 C531 362, 531 362, 557 334" fill="none" stroke="#2f3b36" stroke-width="5" opacity="0.24"/>
</svg>