<svg xmlns="http://www.w3.org/2000/svg" width="960" height="640" viewBox="0 0 960 640" role="img" aria-label="Describe Picture 4" data-scene-key="construction-briefing-104">
  <rect width="960" height="640" fill="#f4f2f8"/>
  <rect x="82" y="88" width="796" height="448" rx="18" fill="#ffffff" stroke="#ded9ec" stroke-width="6"/>
  <rect x="126" y="136" width="540" height="88" rx="14" fill="#59669a" opacity="0.18"/>
  <rect x="148" y="274" width="670" height="60" rx="18" fill="#59669a" opacity="0.80"/>
  <rect x="170" y="222" width="126" height="76" rx="10" fill="#f8fbfd" stroke="#d18a43" stroke-width="5"/>
  <circle cx="704" cy="226" r="34" fill="#d18a43" opacity="0.78"/>
  <rect x="674" y="264" width="64" height="94" rx="18" fill="#59669a"/>
  <rect x="590" y="382" width="92" height="94" rx="12" fill="#ded9ec" stroke="#59669a" stroke-width="5"/>
  <circle cx="614" cy="486" r="10" fill="#30354e"/>
  <circle cx="658" cy="486" r="10" fill="#30354e"/>
  <circle cx="400" cy="224" r="23" fill="#8f6348"/>
  <rect x="374" y="258" width="52" height="78" rx="17" fill="#d18a43"/>
  <path d="M374 276 C400 304, 400 304, 426 276" fill="none" stroke="#30354e" stroke-width="5" opacity="0.24"/>
  <rect x="188" y="422" width="288" height="14" rx="7" fill="#d18a43"/>
</svg>