<svg xmlns="http://www.w3.org/2000/svg" width="960" height="640" viewBox="0 0 960 640" role="img" aria-label="Picture Sentence 2" data-scene-key="warehouse-inspection-602">
  <rect width="960" height="640" fill="#f5f4f1"/>
  <rect x="76" y="82" width="808" height="474" rx="16" fill="#ffffff" stroke="#ddd5ca" stroke-width="6"/>
  <rect x="112" y="124" width="220" height="326" rx="10" fill="#ddd5ca"/>
  <rect x="138" y="160" width="72" height="54" rx="8" fill="#bd4b4b"/>
  <rect x="224" y="160" width="72" height="54" rx="8" fill="#4c6178" opacity="0.65"/>
  <rect x="138" y="236" width="158" height="56" rx="8" fill="#4c6178" opacity="0.28"/>
  <rect x="416" y="338" width="286" height="58" rx="10" fill="#4c6178" opacity="0.84"/>
  <circle cx="468" cy="414" r="24" fill="#343b46"/>
  <circle cx="662" cy="414" r="24" fill="#343b46"/>
  <rect x="612" y="170" width="118" height="156" rx="12" fill="#bd4b4b" opacity="0.88"/>
  <rect x="640" y="205" width="58" height="48" rx="7" fill="#f8fbfd"/>
  <circle cx="556" cy="232" r="23" fill="#8f6348"/>
  <rect x="530" y="266" width="52" height="78" rx="17" fill="#4c6178"/>
  <path d="M530 284 C556 312, 556 312, 582 284" fill="none" stroke="#343b46" stroke-width="5" opacity="0.24"/>
  <rect x="734" y="438" width="76" height="18" rx="9" fill="#bd4b4b"/>
</svg>