<svg xmlns="http://www.w3.org/2000/svg" width="960" height="640" viewBox="0 0 960 640" role="img" aria-label="Describe Picture 4" data-scene-key="hotel-reception-604">
  <rect width="960" height="640" fill="#f4f2f8"/>
  <rect x="84" y="90" width="792" height="448" rx="18" fill="#ffffff" stroke="#ded9ec" stroke-width="6"/>
  <rect x="132" y="150" width="246" height="164" rx="13" fill="#59669a" opacity="0.18"/>
  <rect x="422" y="132" width="300" height="92" rx="14" fill="#ded9ec"/>
  <rect x="452" y="164" width="240" height="18" rx="9" fill="#59669a" opacity="0.28"/>
  <rect x="130" y="376" width="696" height="46" rx="12" fill="#59669a" opacity="0.80"/>
  <rect x="188" y="326" width="96" height="58" rx="10" fill="#d18a43" opacity="0.86"/>
  <rect x="548" y="278" width="132" height="92" rx="12" fill="#f7fbfc" stroke="#59669a" stroke-width="5"/>
  <circle cx="704" cy="308" r="28" fill="#d18a43" opacity="0.74"/>
  <circle cx="294" cy="282" r="23" fill="#8f6348"/>
  <rect x="268" y="316" width="52" height="78" rx="17" fill="#d18a43"/>
  <path d="M268 334 C294 362, 294 362, 320 334" fill="none" stroke="#30354e" stroke-width="5" opacity="0.24"/>
  <circle cx="581" cy="276" r="23" fill="#6e4d39"/>
  <rect x="555" y="310" width="52" height="78" rx="17" fill="#59669a"/>
  <path d="M555 328 C581 356, 581 356, 607 328" fill="none" stroke="#30354e" stroke-width="5" opacity="0.24"/>
</svg>