<svg xmlns="http://www.w3.org/2000/svg" width="960" height="640" viewBox="0 0 960 640" role="img" aria-label="Describe Picture 3" data-scene-key="training-room-603">
  <rect width="960" height="640" fill="#f2f7f4"/>
  <rect x="88" y="86" width="784" height="452" rx="18" fill="#ffffff" stroke="#cee0d6" stroke-width="6"/>
  <rect x="130" y="126" width="252" height="178" rx="12" fill="#cee0d6"/>
  <rect x="162" y="158" width="70" height="114" rx="8" fill="#315d66" opacity="0.48"/>
  <rect x="246" y="184" width="70" height="88" rx="8" fill="#e1a03f" opacity="0.82"/>
  <rect x="432" y="128" width="324" height="50" rx="12" fill="#315d66" opacity="0.18"/>
  <rect x="432" y="208" width="252" height="28" rx="8" fill="#e1a03f" opacity="0.62"/>
  <rect x="146" y="374" width="642" height="58" rx="18" fill="#315d66" opacity="0.74"/>
  <rect x="516" y="288" width="112" height="84" rx="10" fill="#f7fbfc" stroke="#315d66" stroke-width="5"/>
  <circle cx="347" cy="306" r="23" fill="#8f6348"/>
  <rect x="321" y="340" width="52" height="78" rx="17" fill="#315d66"/>
  <path d="M321 358 C347 386, 347 386, 373 358" fill="none" stroke="#26363a" stroke-width="5" opacity="0.24"/>
  <circle cx="689" cy="308" r="23" fill="#6e4d39"/>
  <rect x="663" y="342" width="52" height="78" rx="17" fill="#e1a03f"/>
  <path d="M663 360 C689 388, 689 388, 715 360" fill="none" stroke="#26363a" stroke-width="5" opacity="0.24"/>
</svg>