<svg xmlns="http://www.w3.org/2000/svg" width="960" height="640" viewBox="0 0 960 640" role="img" aria-label="Picture Sentence 3">
  <rect width="960" height="640" fill="#f7f3ea"/>
  <rect x="86" y="96" width="788" height="438" rx="16" fill="#ffffff" stroke="#dbe7dc" stroke-width="6"/>
  <rect x="118" y="132" width="212" height="318" rx="10" fill="#dbe7dc"/>
  <rect x="145" y="165" width="72" height="50" rx="7" fill="#d98c41"/>
  <rect x="232" y="165" width="72" height="50" rx="7" fill="#2f5f5b" opacity="0.72"/>
  <rect x="145" y="238" width="160" height="52" rx="7" fill="#2f5f5b" opacity="0.28"/>
  <rect x="145" y="314" width="72" height="52" rx="7" fill="#d98c41" opacity="0.78"/>
  <rect x="232" y="314" width="72" height="52" rx="7" fill="#2f5f5b" opacity="0.55"/>
  <rect x="410" y="340" width="255" height="54" rx="9" fill="#2f5f5b" opacity="0.83"/>
  <circle cx="455" cy="410" r="24" fill="#33413f"/>
  <circle cx="632" cy="410" r="24" fill="#33413f"/>
  <path d="M610 190 h98 v150 h-74 l-24-54 z" fill="#d98c41" opacity="0.88"/>
  <rect x="640" y="218" width="45" height="42" rx="6" fill="#eef3f7"/>
  <circle cx="541" cy="226" r="24" fill="#8a6044"/>
  <rect x="514" y="260" width="54" height="76" rx="18" fill="#2f5f5b"/>
  <path d="M519 260 C536 278, 546 278, 563 260" fill="none" stroke="#33413f" stroke-width="5" opacity="0.25"/>
  <rect x="720" y="404" width="76" height="18" rx="9" fill="#d98c41"/>
</svg>