<svg xmlns="http://www.w3.org/2000/svg" width="960" height="640" viewBox="0 0 960 640" role="img" aria-label="Picture Sentence 5" data-scene-key="retail-display-605">
  <rect width="960" height="640" fill="#f2f7f5"/>
  <rect x="92" y="84" width="776" height="454" rx="18" fill="#ffffff" stroke="#d2e3da" stroke-width="6"/>
  <rect x="134" y="130" width="188" height="286" rx="13" fill="#d2e3da"/>
  <rect x="166" y="166" width="118" height="20" rx="10" fill="#3e7057" opacity="0.34"/>
  <rect x="166" y="216" width="118" height="20" rx="10" fill="#d7a23f" opacity="0.70"/>
  <rect x="402" y="136" width="282" height="176" rx="12" fill="#f8fbfd" stroke="#3e7057" stroke-width="5"/>
  <rect x="438" y="176" width="208" height="16" rx="8" fill="#3e7057" opacity="0.30"/>
  <rect x="438" y="220" width="154" height="16" rx="8" fill="#d7a23f" opacity="0.78"/>
  <rect x="350" y="396" width="418" height="48" rx="12" fill="#d7a23f" opacity="0.84"/>
  <rect x="456" y="340" width="128" height="64" rx="10" fill="#ffffff" stroke="#d2e3da" stroke-width="5"/>
  <circle cx="679" cy="300" r="23" fill="#8f6348"/>
  <rect x="653" y="334" width="52" height="78" rx="17" fill="#3e7057"/>
  <path d="M653 352 C679 380, 679 380, 705 352" fill="none" stroke="#25382d" stroke-width="5" opacity="0.24"/>
</svg>