<svg xmlns="http://www.w3.org/2000/svg" width="960" height="640" viewBox="0 0 960 640" role="img" aria-label="Picture Sentence 1" data-scene-key="market-stand-601">
  <rect width="960" height="640" fill="#f7f2e9"/>
  <rect x="84" y="86" width="792" height="452" rx="18" fill="#ffffff" stroke="#e4dccf" stroke-width="6"/>
  <rect x="126" y="132" width="238" height="160" rx="13" fill="#e4dccf"/>
  <rect x="154" y="166" width="72" height="70" rx="9" fill="#d77a45" opacity="0.84"/>
  <rect x="246" y="166" width="72" height="70" rx="9" fill="#2c6b5c" opacity="0.62"/>
  <rect x="446" y="132" width="270" height="88" rx="14" fill="#2c6b5c" opacity="0.18"/>
  <rect x="484" y="164" width="194" height="16" rx="8" fill="#2c6b5c" opacity="0.34"/>
  <rect x="138" y="368" width="678" height="58" rx="18" fill="#2c6b5c" opacity="0.78"/>
  <path d="M546 292 C570 252, 644 252, 668 292" fill="none" stroke="#d77a45" stroke-width="14" stroke-linecap="round"/>
  <rect x="570" y="304" width="72" height="70" rx="14" fill="#2c6b5c"/>
  <circle cx="291" cy="292" r="23" fill="#8f6348"/>
  <rect x="265" y="326" width="52" height="78" rx="17" fill="#d77a45"/>
  <path d="M265 344 C291 372, 291 372, 317 344" fill="none" stroke="#2f3b36" stroke-width="5" opacity="0.24"/>
</svg>