<svg xmlns="http://www.w3.org/2000/svg" width="960" height="640" viewBox="0 0 960 640" role="img" aria-label="Picture Sentence 2" data-scene-key="construction-briefing-202">
  <rect width="960" height="640" fill="#f5f4f1"/>
  <rect x="82" y="88" width="796" height="448" rx="18" fill="#ffffff" stroke="#ddd5ca" stroke-width="6"/>
  <rect x="126" y="136" width="540" height="88" rx="14" fill="#4c6178" opacity="0.18"/>
  <rect x="148" y="274" width="670" height="60" rx="18" fill="#4c6178" opacity="0.80"/>
  <rect x="170" y="222" width="126" height="76" rx="10" fill="#f8fbfd" stroke="#bd4b4b" stroke-width="5"/>
  <circle cx="704" cy="226" r="34" fill="#bd4b4b" opacity="0.78"/>
  <rect x="674" y="264" width="64" height="94" rx="18" fill="#4c6178"/>
  <rect x="590" y="382" width="92" height="94" rx="12" fill="#ddd5ca" stroke="#4c6178" stroke-width="5"/>
  <circle cx="614" cy="486" r="10" fill="#343b46"/>
  <circle cx="658" cy="486" r="10" fill="#343b46"/>
  <circle cx="362" cy="224" r="23" fill="#8f6348"/>
  <rect x="336" y="258" width="52" height="78" rx="17" fill="#bd4b4b"/>
  <path d="M336 276 C362 304, 362 304, 388 276" fill="none" stroke="#343b46" stroke-width="5" opacity="0.24"/>
  <rect x="188" y="422" width="288" height="14" rx="7" fill="#bd4b4b"/>
</svg>