<svg xmlns="http://www.w3.org/2000/svg" width="960" height="640" viewBox="0 0 960 640" role="img" aria-label="Picture Sentence 1" data-scene-key="clinic-laboratory-201">
  <rect width="960" height="640" fill="#f7f2e9"/>
  <rect x="100" y="88" width="760" height="448" rx="18" fill="#ffffff" stroke="#e4dccf" stroke-width="6"/>
  <rect x="132" y="136" width="224" height="132" rx="12" fill="#e4dccf"/>
  <rect x="398" y="130" width="118" height="180" rx="10" fill="#f8fbfd" stroke="#2c6b5c" stroke-width="5"/>
  <circle cx="457" cy="198" r="34" fill="#d77a45" opacity="0.72"/>
  <rect x="576" y="130" width="210" height="70" rx="12" fill="#2c6b5c" opacity="0.20"/>
  <rect x="594" y="222" width="170" height="24" rx="8" fill="#2c6b5c" opacity="0.32"/>
  <rect x="140" y="362" width="666" height="54" rx="12" fill="#2c6b5c" opacity="0.76"/>
  <rect x="190" y="322" width="82" height="50" rx="8" fill="#d77a45" opacity="0.82"/>
  <rect x="314" y="316" width="72" height="56" rx="8" fill="#e4dccf"/>
  <circle cx="273" cy="280" r="23" fill="#8f6348"/>
  <rect x="247" y="314" width="52" height="78" rx="17" fill="#d77a45"/>
  <path d="M247 332 C273 360, 273 360, 299 332" fill="none" stroke="#2f3b36" stroke-width="5" opacity="0.24"/>
  <circle cx="679" cy="278" r="23" fill="#6e4d39"/>
  <rect x="653" y="312" width="52" height="78" rx="17" fill="#2c6b5c"/>
  <path d="M653 330 C679 358, 679 358, 705 330" fill="none" stroke="#2f3b36" stroke-width="5" opacity="0.24"/>
</svg>