<svg xmlns="http://www.w3.org/2000/svg" width="960" height="640" viewBox="0 0 960 640" role="img" aria-label="Picture Sentence 4" data-scene-key="cafe-service-204">
  <rect width="960" height="640" fill="#f4f2f8"/>
  <rect x="88" y="90" width="784" height="444" rx="18" fill="#ffffff" stroke="#ded9ec" stroke-width="6"/>
  <rect x="128" y="142" width="336" height="66" rx="12" fill="#59669a" opacity="0.18"/>
  <rect x="522" y="136" width="210" height="152" rx="14" fill="#ded9ec"/>
  <circle cx="574" cy="194" r="28" fill="#d18a43" opacity="0.76"/>
  <rect x="610" y="174" width="86" height="14" rx="7" fill="#59669a" opacity="0.32"/>
  <rect x="132" y="358" width="696" height="58" rx="18" fill="#59669a" opacity="0.78"/>
  <rect x="196" y="306" width="102" height="58" rx="10" fill="#d18a43" opacity="0.84"/>
  <rect x="356" y="294" width="100" height="70" rx="10" fill="#f8fbfd" stroke="#ded9ec" stroke-width="5"/>
  <circle cx="262" cy="262" r="23" fill="#8f6348"/>
  <rect x="236" y="296" width="52" height="78" rx="17" fill="#59669a"/>
  <path d="M236 314 C262 342, 262 342, 288 314" fill="none" stroke="#30354e" stroke-width="5" opacity="0.24"/>
  <circle cx="660" cy="304" r="23" fill="#6e4d39"/>
  <rect x="634" y="338" width="52" height="78" rx="17" fill="#d18a43"/>
  <path d="M634 356 C660 384, 660 384, 686 356" fill="none" stroke="#30354e" stroke-width="5" opacity="0.24"/>
</svg>