<svg xmlns="http://www.w3.org/2000/svg" width="960" height="640" viewBox="0 0 960 640" role="img" aria-label="Describe Picture 3" data-scene-key="delivery-dock-203">
  <rect width="960" height="640" fill="#f2f7f4"/>
  <rect x="78" y="82" width="804" height="474" rx="18" fill="#ffffff" stroke="#cee0d6" stroke-width="6"/>
  <rect x="122" y="130" width="274" height="256" rx="14" fill="#cee0d6"/>
  <rect x="152" y="162" width="88" height="72" rx="9" fill="#e1a03f" opacity="0.86"/>
  <rect x="260" y="162" width="88" height="72" rx="9" fill="#315d66" opacity="0.64"/>
  <rect x="152" y="260" width="196" height="34" rx="9" fill="#315d66" opacity="0.25"/>
  <path d="M492 386 h254 v48 h-254 z" fill="#315d66" opacity="0.82"/>
  <circle cx="536" cy="450" r="22" fill="#26363a"/>
  <circle cx="704" cy="450" r="22" fill="#26363a"/>
  <rect x="598" y="186" width="130" height="118" rx="12" fill="#f8fbfd" stroke="#315d66" stroke-width="5"/>
  <circle cx="525" cy="282" r="23" fill="#8f6348"/>
  <rect x="499" y="316" width="52" height="78" rx="17" fill="#315d66"/>
  <path d="M499 334 C525 362, 525 362, 551 334" fill="none" stroke="#26363a" stroke-width="5" opacity="0.24"/>
</svg>