<svg xmlns="http://www.w3.org/2000/svg" width="960" height="640" viewBox="0 0 960 640" role="img" aria-label="Picture Sentence 5" data-scene-key="delivery-dock-805">
  <rect width="960" height="640" fill="#f2f7f5"/>
  <rect x="78" y="82" width="804" height="474" rx="18" fill="#ffffff" stroke="#d2e3da" stroke-width="6"/>
  <rect x="122" y="130" width="274" height="256" rx="14" fill="#d2e3da"/>
  <rect x="152" y="162" width="88" height="72" rx="9" fill="#d7a23f" opacity="0.86"/>
  <rect x="260" y="162" width="88" height="72" rx="9" fill="#3e7057" opacity="0.64"/>
  <rect x="152" y="260" width="196" height="34" rx="9" fill="#3e7057" opacity="0.25"/>
  <path d="M492 386 h254 v48 h-254 z" fill="#3e7057" opacity="0.82"/>
  <circle cx="536" cy="450" r="22" fill="#25382d"/>
  <circle cx="704" cy="450" r="22" fill="#25382d"/>
  <rect x="598" y="186" width="130" height="118" rx="12" fill="#f8fbfd" stroke="#3e7057" stroke-width="5"/>
  <circle cx="511" cy="282" r="23" fill="#8f6348"/>
  <rect x="485" y="316" width="52" height="78" rx="17" fill="#3e7057"/>
  <path d="M485 334 C511 362, 511 362, 537 334" fill="none" stroke="#25382d" stroke-width="5" opacity="0.24"/>
</svg>