<svg xmlns="http://www.w3.org/2000/svg" width="960" height="640" viewBox="0 0 960 640" role="img" aria-label="Picture Sentence 4">
  <rect width="960" height="640" fill="#f8f4ef"/>
  <rect x="88" y="88" width="784" height="448" rx="18" fill="#ffffff" stroke="#e3d4c4" stroke-width="6"/>
  <rect x="130" y="126" width="256" height="184" rx="12" fill="#e3d4c4"/>
  <rect x="160" y="156" width="68" height="118" rx="8" fill="#6a4f3f" opacity="0.45"/>
  <rect x="244" y="184" width="68" height="90" rx="8" fill="#4f86a6" opacity="0.82"/>
  <rect x="430" y="128" width="326" height="48" rx="12" fill="#6a4f3f" opacity="0.18"/>
  <rect x="430" y="206" width="250" height="28" rx="8" fill="#4f86a6" opacity="0.62"/>
  <rect x="146" y="370" width="640" height="58" rx="18" fill="#6a4f3f" opacity="0.74"/>
  <rect x="514" y="286" width="112" height="84" rx="10" fill="#eef3f7" stroke="#6a4f3f" stroke-width="5"/>
  <circle cx="356" cy="304" r="24" fill="#8a6044"/>
  <rect x="329" y="338" width="54" height="76" rx="18" fill="#6a4f3f"/>
  <path d="M334 338 C351 356, 361 356, 378 338" fill="none" stroke="#35271f" stroke-width="5" opacity="0.25"/>
  <circle cx="676" cy="306" r="24" fill="#6f4e37"/>
  <rect x="649" y="340" width="54" height="76" rx="18" fill="#4f86a6"/>
  <path d="M654 340 C671 358, 681 358, 698 340" fill="none" stroke="#35271f" stroke-width="5" opacity="0.25"/>
</svg>