<svg xmlns="http://www.w3.org/2000/svg" width="960" height="640" viewBox="0 0 960 640" role="img" aria-label="Picture Sentence 2" data-scene-key="tech-support-desk-502">
  <rect width="960" height="640" fill="#f5f4f1"/>
  <rect x="88" y="84" width="784" height="456" rx="18" fill="#ffffff" stroke="#ddd5ca" stroke-width="6"/>
  <rect x="132" y="134" width="342" height="174" rx="14" fill="#f8fbfd" stroke="#4c6178" stroke-width="5"/>
  <rect x="168" y="174" width="236" height="16" rx="8" fill="#4c6178" opacity="0.30"/>
  <rect x="168" y="216" width="170" height="16" rx="8" fill="#bd4b4b" opacity="0.76"/>
  <rect x="550" y="136" width="170" height="218" rx="13" fill="#ddd5ca"/>
  <circle cx="636" cy="214" r="36" fill="#bd4b4b" opacity="0.78"/>
  <rect x="126" y="388" width="704" height="54" rx="14" fill="#4c6178" opacity="0.80"/>
  <rect x="214" y="332" width="118" height="60" rx="10" fill="#bd4b4b" opacity="0.84"/>
  <circle cx="428" cy="308" r="23" fill="#8f6348"/>
  <rect x="402" y="342" width="52" height="78" rx="17" fill="#4c6178"/>
  <path d="M402 360 C428 388, 428 388, 454 360" fill="none" stroke="#343b46" stroke-width="5" opacity="0.24"/>
  <circle cx="686" cy="308" r="23" fill="#6e4d39"/>
  <rect x="660" y="342" width="52" height="78" rx="17" fill="#bd4b4b"/>
  <path d="M660 360 C686 388, 686 388, 712 360" fill="none" stroke="#343b46" stroke-width="5" opacity="0.24"/>
</svg>