<svg xmlns="http://www.w3.org/2000/svg" width="960" height="640" viewBox="0 0 960 640" role="img" aria-label="Describe Picture 4" data-scene-key="warehouse-inspection-504">
  <rect width="960" height="640" fill="#f4f2f8"/>
  <rect x="76" y="82" width="808" height="474" rx="16" fill="#ffffff" stroke="#ded9ec" stroke-width="6"/>
  <rect x="112" y="124" width="220" height="326" rx="10" fill="#ded9ec"/>
  <rect x="138" y="160" width="72" height="54" rx="8" fill="#d18a43"/>
  <rect x="224" y="160" width="72" height="54" rx="8" fill="#59669a" opacity="0.65"/>
  <rect x="138" y="236" width="158" height="56" rx="8" fill="#59669a" opacity="0.28"/>
  <rect x="416" y="338" width="286" height="58" rx="10" fill="#59669a" opacity="0.84"/>
  <circle cx="468" cy="414" r="24" fill="#30354e"/>
  <circle cx="662" cy="414" r="24" fill="#30354e"/>
  <rect x="612" y="170" width="118" height="156" rx="12" fill="#d18a43" opacity="0.88"/>
  <rect x="640" y="205" width="58" height="48" rx="7" fill="#f8fbfd"/>
  <circle cx="546" cy="232" r="23" fill="#8f6348"/>
  <rect x="520" y="266" width="52" height="78" rx="17" fill="#59669a"/>
  <path d="M520 284 C546 312, 546 312, 572 284" fill="none" stroke="#30354e" stroke-width="5" opacity="0.24"/>
  <rect x="734" y="438" width="76" height="18" rx="9" fill="#d18a43"/>
</svg>