<svg xmlns="http://www.w3.org/2000/svg" width="960" height="640" viewBox="0 0 960 640" role="img" aria-label="Picture Sentence 1" data-scene-key="library-workshop-501">
  <rect width="960" height="640" fill="#f7f2e9"/>
  <rect x="92" y="88" width="776" height="448" rx="18" fill="#ffffff" stroke="#e4dccf" stroke-width="6"/>
  <rect x="132" y="126" width="160" height="300" rx="12" fill="#e4dccf"/>
  <rect x="168" y="158" width="86" height="26" rx="8" fill="#2c6b5c" opacity="0.36"/>
  <rect x="168" y="220" width="86" height="26" rx="8" fill="#d77a45" opacity="0.70"/>
  <rect x="360" y="136" width="360" height="126" rx="14" fill="#f8fbfd" stroke="#2c6b5c" stroke-width="5"/>
  <rect x="400" y="174" width="260" height="16" rx="8" fill="#2c6b5c" opacity="0.30"/>
  <rect x="400" y="214" width="176" height="16" rx="8" fill="#d77a45" opacity="0.76"/>
  <rect x="338" y="382" width="426" height="56" rx="14" fill="#2c6b5c" opacity="0.76"/>
  <circle cx="501" cy="304" r="23" fill="#8f6348"/>
  <rect x="475" y="338" width="52" height="78" rx="17" fill="#d77a45"/>
  <path d="M475 356 C501 384, 501 384, 527 356" fill="none" stroke="#2f3b36" stroke-width="5" opacity="0.24"/>
  <circle cx="643" cy="304" r="23" fill="#6e4d39"/>
  <rect x="617" y="338" width="52" height="78" rx="17" fill="#2c6b5c"/>
  <path d="M617 356 C643 384, 643 384, 669 356" fill="none" stroke="#2f3b36" stroke-width="5" opacity="0.24"/>
</svg>