<svg xmlns="http://www.w3.org/2000/svg" width="960" height="640" viewBox="0 0 960 640" role="img" aria-label="Picture Sentence 4">
  <rect width="960" height="640" fill="#f4f7fb"/>
  <rect x="112" y="98" width="735" height="430" rx="18" fill="#ffffff" stroke="#d7e4ee" stroke-width="6"/>
  <rect x="158" y="128" width="255" height="140" rx="12" fill="#d7e4ee"/>
  <rect x="185" y="228" width="178" height="16" rx="8" fill="#426b8f" opacity="0.35"/>
  <rect x="455" y="138" width="305" height="38" rx="8" fill="#426b8f" opacity="0.22"/>
  <rect x="455" y="197" width="254" height="24" rx="7" fill="#f3b23c" opacity="0.45"/>
  <rect x="185" y="352" width="556" height="58" rx="18" fill="#426b8f" opacity="0.82"/>
  <rect x="225" y="330" width="66" height="38" rx="12" fill="#d7e4ee"/>
  <rect x="620" y="329" width="72" height="40" rx="12" fill="#d7e4ee"/>
  <circle cx="278" cy="292" r="24" fill="#8a6044"/>
  <rect x="251" y="326" width="54" height="76" rx="18" fill="#f3b23c"/>
  <path d="M256 326 C273 344, 283 344, 300 326" fill="none" stroke="#263645" stroke-width="5" opacity="0.25"/>
  <circle cx="632" cy="292" r="24" fill="#6f4e37"/>
  <rect x="605" y="326" width="54" height="76" rx="18" fill="#426b8f"/>
  <path d="M610 326 C627 344, 637 344, 654 326" fill="none" stroke="#263645" stroke-width="5" opacity="0.25"/>
  <rect x="410" y="436" width="134" height="16" rx="8" fill="#f3b23c"/>
</svg>